<svg preserveAspectRatio="none" width="100%" height="100%" overflow="visible" style="display: block;" viewBox="0 0 23 20" fill="none" xmlns="http://www.w3.org/2000/svg">
<g id="SVG">
<path id="Vector" d="M10 3.62833C10.917 2.58871 12.3817 2.22516 13.6785 2.71533C14.9752 3.20551 15.8332 4.44707 15.8332 5.83333C15.8332 7.2196 14.9752 8.46116 13.6785 8.95133C12.3817 9.4415 10.917 9.07796 10 8.03833M12.5 17.5H2.5V16.6667C2.5 13.9071 4.74042 11.6667 7.5 11.6667C10.2596 11.6667 12.5 13.9071 12.5 16.6667V17.5M12.5 17.5H17.5V16.6667C17.5003 14.8802 16.5474 13.2293 15.0003 12.336C13.4533 11.4427 11.5471 11.4426 10 12.3358M21.25 4.83583C21.25 5.98566 20.3165 6.91917 19.1667 6.91917C18.0168 6.91917 17.0833 5.98566 17.0833 4.83583C17.0833 3.68601 18.0168 2.7525 19.1667 2.7525C20.3165 2.7525 21.25 3.68601 21.25 4.83583" stroke="var(--stroke-0, #2563EB)" stroke-width="1.66667" stroke-linecap="round" stroke-linejoin="round"/>
</g>
</svg>
