<svg preserveAspectRatio="none" width="100%" height="100%" overflow="visible" style="display: block;" viewBox="0 0 20 20" fill="none" xmlns="http://www.w3.org/2000/svg">
<g id="SVG">
<path id="Vector" d="M10 5.83333V17.5" stroke="var(--stroke-0, #2563EB)" stroke-width="1.66667" stroke-linecap="round" stroke-linejoin="round"/>
<path id="Vector_2" d="M2.5 15C2.04007 15 1.66667 14.6266 1.66667 14.1667V3.33333C1.66667 2.8734 2.04007 2.5 2.5 2.5H6.66667C8.50638 2.5 10 3.99362 10 5.83333C10 3.99362 11.4936 2.5 13.3333 2.5H17.5C17.9599 2.5 18.3333 2.8734 18.3333 3.33333V14.1667C18.3333 14.6266 17.9599 15 17.5 15H12.5C11.1202 15 10 16.1202 10 17.5C10 16.1202 8.87979 15 7.5 15" stroke="var(--stroke-0, #2563EB)" stroke-width="1.66667" stroke-linecap="round" stroke-linejoin="round"/>
</g>
</svg>
